<svg width="38" height="20" viewBox="0 0 38 20" fill="none" xmlns="http://www.w3.org/2000/svg">
<rect width="38" height="20" rx="10" fill="url(#paint0_linear_0_20976)"/>
<path d="M6.37314 11.48V10.472H9.22914V11.48H6.37314ZM12.6163 14.144C11.9923 14.144 11.4723 14.04 11.0563 13.832C10.6403 13.624 10.2963 13.368 10.0243 13.064L10.6843 12.176C10.9163 12.408 11.1803 12.608 11.4763 12.776C11.7723 12.936 12.1123 13.016 12.4963 13.016C12.9123 13.016 13.2483 12.916 13.5043 12.716C13.7683 12.508 13.9003 12.224 13.9003 11.864C13.9003 11.664 13.8643 11.484 13.7923 11.324C13.7203 11.164 13.5963 11.028 13.4203 10.916C13.2523 10.804 13.0243 10.72 12.7363 10.664C12.4483 10.6 12.0883 10.568 11.6563 10.568V9.56C12.0323 9.56 12.3443 9.532 12.5923 9.476C12.8483 9.412 13.0523 9.328 13.2043 9.224C13.3643 9.112 13.4763 8.98 13.5403 8.828C13.6123 8.676 13.6483 8.512 13.6483 8.336C13.6483 8.016 13.5483 7.768 13.3483 7.592C13.1483 7.408 12.8723 7.316 12.5203 7.316C12.2163 7.316 11.9403 7.384 11.6923 7.52C11.4523 7.648 11.2163 7.82 10.9843 8.036L10.2763 7.184C10.6043 6.896 10.9523 6.664 11.3203 6.488C11.6963 6.312 12.1123 6.224 12.5683 6.224C12.9363 6.224 13.2723 6.268 13.5763 6.356C13.8803 6.444 14.1403 6.576 14.3563 6.752C14.5723 6.92 14.7403 7.132 14.8603 7.388C14.9803 7.636 15.0403 7.92 15.0403 8.24C15.0403 8.672 14.9203 9.032 14.6803 9.32C14.4483 9.608 14.1243 9.832 13.7083 9.992V10.04C14.1643 10.16 14.5403 10.38 14.8363 10.7C15.1403 11.02 15.2923 11.432 15.2923 11.936C15.2923 12.288 15.2203 12.6 15.0763 12.872C14.9403 13.144 14.7483 13.376 14.5003 13.568C14.2603 13.752 13.9763 13.896 13.6483 14C13.3283 14.096 12.9843 14.144 12.6163 14.144ZM18.9607 14.144C18.1607 14.144 17.5287 13.804 17.0647 13.124C16.6007 12.436 16.3687 11.444 16.3687 10.148C16.3687 8.852 16.6007 7.876 17.0647 7.22C17.5287 6.556 18.1607 6.224 18.9607 6.224C19.7607 6.224 20.3927 6.556 20.8567 7.22C21.3207 7.884 21.5527 8.86 21.5527 10.148C21.5527 11.444 21.3207 12.436 20.8567 13.124C20.3927 13.804 19.7607 14.144 18.9607 14.144ZM18.9607 13.064C19.1447 13.064 19.3127 13.016 19.4647 12.92C19.6247 12.816 19.7607 12.648 19.8727 12.416C19.9847 12.184 20.0727 11.884 20.1367 11.516C20.2007 11.148 20.2327 10.692 20.2327 10.148C20.2327 9.612 20.2007 9.164 20.1367 8.804C20.0727 8.436 19.9847 8.14 19.8727 7.916C19.7607 7.692 19.6247 7.536 19.4647 7.448C19.3127 7.352 19.1447 7.304 18.9607 7.304C18.7767 7.304 18.6047 7.352 18.4447 7.448C18.2927 7.536 18.1607 7.692 18.0487 7.916C17.9367 8.14 17.8487 8.436 17.7847 8.804C17.7207 9.164 17.6887 9.612 17.6887 10.148C17.6887 10.692 17.7207 11.148 17.7847 11.516C17.8487 11.884 17.9367 12.184 18.0487 12.416C18.1607 12.648 18.2927 12.816 18.4447 12.92C18.6047 13.016 18.7767 13.064 18.9607 13.064ZM24.273 10.976C23.721 10.976 23.269 10.76 22.917 10.328C22.573 9.888 22.401 9.272 22.401 8.48C22.401 7.688 22.573 7.08 22.917 6.656C23.269 6.224 23.721 6.008 24.273 6.008C24.825 6.008 25.273 6.224 25.617 6.656C25.969 7.08 26.145 7.688 26.145 8.48C26.145 9.272 25.969 9.888 25.617 10.328C25.273 10.76 24.825 10.976 24.273 10.976ZM24.273 10.172C24.529 10.172 24.737 10.04 24.897 9.776C25.065 9.504 25.149 9.072 25.149 8.48C25.149 7.888 25.065 7.464 24.897 7.208C24.737 6.944 24.529 6.812 24.273 6.812C24.017 6.812 23.805 6.944 23.637 7.208C23.477 7.464 23.397 7.888 23.397 8.48C23.397 9.072 23.477 9.504 23.637 9.776C23.805 10.04 24.017 10.172 24.273 10.172ZM24.513 14.144L28.797 6.008H29.637L25.365 14.144H24.513ZM29.901 14.144C29.349 14.144 28.897 13.928 28.545 13.496C28.201 13.056 28.029 12.44 28.029 11.648C28.029 10.856 28.201 10.248 28.545 9.824C28.897 9.392 29.349 9.176 29.901 9.176C30.453 9.176 30.901 9.392 31.245 9.824C31.597 10.248 31.773 10.856 31.773 11.648C31.773 12.44 31.597 13.056 31.245 13.496C30.901 13.928 30.453 14.144 29.901 14.144ZM29.901 13.34C30.157 13.34 30.365 13.208 30.525 12.944C30.693 12.672 30.777 12.24 30.777 11.648C30.777 11.056 30.693 10.632 30.525 10.376C30.365 10.112 30.157 9.98 29.901 9.98C29.645 9.98 29.433 10.112 29.265 10.376C29.105 10.632 29.025 11.056 29.025 11.648C29.025 12.24 29.105 12.672 29.265 12.944C29.433 13.208 29.645 13.34 29.901 13.34Z" fill="#131313"/>
<defs>
<linearGradient id="paint0_linear_0_20976" x1="-4.64025e-07" y1="18.2375" x2="31.492" y2="-6.80906" gradientUnits="userSpaceOnUse">
<stop stop-color="#FCE154"/>
<stop offset="1" stop-color="#FDBB7D"/>
</linearGradient>
</defs>
</svg>
