<svg width="38" height="20" viewBox="0 0 38 20" fill="none" xmlns="http://www.w3.org/2000/svg">
<rect width="38" height="20" rx="10" fill="url(#paint0_linear_0_20981)"/>
<path d="M6.37314 11.48V10.472H9.22914V11.48H6.37314ZM13.3243 14V12.032H9.95233V11.096L12.9763 6.368H14.6203V10.964H15.5803V12.032H14.6203V14H13.3243ZM11.3203 10.964H13.3243V9.236C13.3243 9.012 13.3283 8.748 13.3363 8.444C13.3523 8.14 13.3683 7.876 13.3843 7.652H13.3363C13.2403 7.852 13.1403 8.048 13.0363 8.24C12.9323 8.432 12.8243 8.632 12.7123 8.84L11.3203 10.964ZM18.9607 14.144C18.1607 14.144 17.5287 13.804 17.0647 13.124C16.6007 12.436 16.3687 11.444 16.3687 10.148C16.3687 8.852 16.6007 7.876 17.0647 7.22C17.5287 6.556 18.1607 6.224 18.9607 6.224C19.7607 6.224 20.3927 6.556 20.8567 7.22C21.3207 7.884 21.5527 8.86 21.5527 10.148C21.5527 11.444 21.3207 12.436 20.8567 13.124C20.3927 13.804 19.7607 14.144 18.9607 14.144ZM18.9607 13.064C19.1447 13.064 19.3127 13.016 19.4647 12.92C19.6247 12.816 19.7607 12.648 19.8727 12.416C19.9847 12.184 20.0727 11.884 20.1367 11.516C20.2007 11.148 20.2327 10.692 20.2327 10.148C20.2327 9.612 20.2007 9.164 20.1367 8.804C20.0727 8.436 19.9847 8.14 19.8727 7.916C19.7607 7.692 19.6247 7.536 19.4647 7.448C19.3127 7.352 19.1447 7.304 18.9607 7.304C18.7767 7.304 18.6047 7.352 18.4447 7.448C18.2927 7.536 18.1607 7.692 18.0487 7.916C17.9367 8.14 17.8487 8.436 17.7847 8.804C17.7207 9.164 17.6887 9.612 17.6887 10.148C17.6887 10.692 17.7207 11.148 17.7847 11.516C17.8487 11.884 17.9367 12.184 18.0487 12.416C18.1607 12.648 18.2927 12.816 18.4447 12.92C18.6047 13.016 18.7767 13.064 18.9607 13.064ZM24.273 10.976C23.721 10.976 23.269 10.76 22.917 10.328C22.573 9.888 22.401 9.272 22.401 8.48C22.401 7.688 22.573 7.08 22.917 6.656C23.269 6.224 23.721 6.008 24.273 6.008C24.825 6.008 25.273 6.224 25.617 6.656C25.969 7.08 26.145 7.688 26.145 8.48C26.145 9.272 25.969 9.888 25.617 10.328C25.273 10.76 24.825 10.976 24.273 10.976ZM24.273 10.172C24.529 10.172 24.737 10.04 24.897 9.776C25.065 9.504 25.149 9.072 25.149 8.48C25.149 7.888 25.065 7.464 24.897 7.208C24.737 6.944 24.529 6.812 24.273 6.812C24.017 6.812 23.805 6.944 23.637 7.208C23.477 7.464 23.397 7.888 23.397 8.48C23.397 9.072 23.477 9.504 23.637 9.776C23.805 10.04 24.017 10.172 24.273 10.172ZM24.513 14.144L28.797 6.008H29.637L25.365 14.144H24.513ZM29.901 14.144C29.349 14.144 28.897 13.928 28.545 13.496C28.201 13.056 28.029 12.44 28.029 11.648C28.029 10.856 28.201 10.248 28.545 9.824C28.897 9.392 29.349 9.176 29.901 9.176C30.453 9.176 30.901 9.392 31.245 9.824C31.597 10.248 31.773 10.856 31.773 11.648C31.773 12.44 31.597 13.056 31.245 13.496C30.901 13.928 30.453 14.144 29.901 14.144ZM29.901 13.34C30.157 13.34 30.365 13.208 30.525 12.944C30.693 12.672 30.777 12.24 30.777 11.648C30.777 11.056 30.693 10.632 30.525 10.376C30.365 10.112 30.157 9.98 29.901 9.98C29.645 9.98 29.433 10.112 29.265 10.376C29.105 10.632 29.025 11.056 29.025 11.648C29.025 12.24 29.105 12.672 29.265 12.944C29.433 13.208 29.645 13.34 29.901 13.34Z" fill="#131313"/>
<defs>
<linearGradient id="paint0_linear_0_20981" x1="-4.64025e-07" y1="18.2375" x2="31.492" y2="-6.80906" gradientUnits="userSpaceOnUse">
<stop stop-color="#FCE154"/>
<stop offset="1" stop-color="#FDBB7D"/>
</linearGradient>
</defs>
</svg>
