<svg width="96" height="16" viewBox="0 0 96 16" fill="none" xmlns="http://www.w3.org/2000/svg">
<path d="M13.0475 7.09271H3.05324L7.41956 2.11691C7.76851 1.71925 7.76851 1.06669 7.41956 0.669034C7.33679 0.574511 7.23847 0.49952 7.13023 0.448353C7.02199 0.397186 6.90595 0.37085 6.78877 0.37085C6.67159 0.37085 6.55556 0.397186 6.44732 0.448353C6.33908 0.49952 6.24076 0.574511 6.15798 0.669034L0.261661 7.3884C0.178716 7.48273 0.11291 7.59478 0.0680105 7.71813C0.0231113 7.84147 0 7.9737 0 8.10724C0 8.24078 0.0231113 8.37301 0.0680105 8.49636C0.11291 8.61971 0.178716 8.73175 0.261661 8.82608L6.15798 15.5455C6.24082 15.6398 6.33916 15.7147 6.44739 15.7658C6.55562 15.8169 6.67162 15.8432 6.78877 15.8432C6.90592 15.8432 7.02192 15.8169 7.13015 15.7658C7.23838 15.7147 7.33673 15.6398 7.41956 15.5455C7.5024 15.4511 7.56811 15.339 7.61294 15.2156C7.65777 15.0923 7.68084 14.9601 7.68084 14.8266C7.68084 14.6931 7.65777 14.5609 7.61294 14.4376C7.56811 14.3142 7.5024 14.2022 7.41956 14.1078L3.05324 9.13197H13.0475C13.5396 9.13197 13.9422 8.67314 13.9422 8.11234C13.9422 7.55154 13.5396 7.09271 13.0475 7.09271Z" fill="#131313"/>
<ellipse cx="29.5279" cy="8.52792" rx="2.68414" ry="3.05893" fill="#131313"/>
<ellipse cx="38.4752" cy="8.52792" rx="2.6842" ry="3.05893" fill="#E2E2E2"/>
<ellipse cx="47.4225" cy="8.52792" rx="2.68427" ry="3.05893" fill="#E2E2E2"/>
<ellipse cx="56.3698" cy="8.52792" rx="2.6842" ry="3.05893" fill="#E2E2E2"/>
<ellipse cx="65.317" cy="8.52792" rx="2.6842" ry="3.05893" fill="#E2E2E2"/>
<path d="M82.3158 7.09271H92.31L87.9437 2.11691C87.5947 1.71925 87.5947 1.06669 87.9437 0.669034C88.0265 0.574511 88.1248 0.49952 88.233 0.448353C88.3413 0.397186 88.4573 0.37085 88.5745 0.37085C88.6917 0.37085 88.8077 0.397186 88.9159 0.448353C89.0242 0.49952 89.1225 0.574511 89.2053 0.669034L95.1016 7.3884C95.1846 7.48273 95.2504 7.59478 95.2953 7.71813C95.3402 7.84147 95.3633 7.9737 95.3633 8.10724C95.3633 8.24078 95.3402 8.37301 95.2953 8.49636C95.2504 8.61971 95.1846 8.73175 95.1016 8.82608L89.2053 15.5455C89.1224 15.6398 89.0241 15.7147 88.9159 15.7658C88.8076 15.8169 88.6916 15.8432 88.5745 15.8432C88.4573 15.8432 88.3413 15.8169 88.2331 15.7658C88.1249 15.7147 88.0265 15.6398 87.9437 15.5455C87.8608 15.4511 87.7951 15.339 87.7503 15.2156C87.7055 15.0923 87.6824 14.9601 87.6824 14.8266C87.6824 14.6931 87.7055 14.5609 87.7503 14.4376C87.7951 14.3142 87.8608 14.2022 87.9437 14.1078L92.31 9.13197H82.3158C81.8237 9.13197 81.421 8.67314 81.421 8.11234C81.421 7.55154 81.8237 7.09271 82.3158 7.09271Z" fill="#131313"/>
</svg>
