<svg width="300" height="628" viewBox="0 0 300 628" fill="none" xmlns="http://www.w3.org/2000/svg">
<path d="M0 125.086C0 123.389 1.28326 122.013 2.86624 122.013C4.44922 122.013 5.73248 123.389 5.73248 125.086V200.897C5.73248 202.594 4.44922 203.97 2.86624 203.97C1.28326 203.97 0 202.594 0 200.897V125.086Z" fill="#161616"/>
<path d="M0 223.435C0 221.738 1.28326 220.362 2.86624 220.362C4.44922 220.362 5.73248 221.738 5.73248 223.435V250.071C5.73248 251.769 4.44922 253.145 2.86624 253.145C1.28326 253.145 0 251.769 0 250.071V223.435Z" fill="#161616"/>
<path d="M294.268 117.915C294.268 116.217 295.551 114.841 297.134 114.841C298.717 114.841 300 116.217 300 117.915V144.551C300 146.248 298.717 147.624 297.134 147.624C295.551 147.624 294.268 146.248 294.268 144.551V117.915Z" fill="#161616"/>
<path d="M1.91083 25.6118C1.91083 11.4668 12.6047 0 25.7962 0H274.204C287.395 0 298.089 11.4668 298.089 25.6117V602.388C298.089 616.533 287.395 628 274.204 628H25.7962C12.6047 628 1.91083 616.533 1.91083 602.388V25.6118Z" fill="#161616"/>
</svg>
